<mxfile>
    <diagram id="Gofnbb3o7tXU5GKaE9Am" name="Page-1">
        <mxGraphModel dx="369" dy="1592" grid="1" gridSize="10" guides="1" tooltips="1" connect="1" arrows="1" fold="1" page="1" pageScale="1" pageWidth="850" pageHeight="1100" background="#FFFFFF" math="0" shadow="0">
            <root>
                <mxCell id="0"/>
                <mxCell id="1" parent="0"/>
                <mxCell id="EEvJO6Ll649oGky7SUus-43" value="app" style="rounded=1;whiteSpace=wrap;html=1;" parent="1" vertex="1">
                    <mxGeometry x="380" y="-740" width="120" height="60" as="geometry"/>
                </mxCell>
                <mxCell id="EEvJO6Ll649oGky7SUus-44" value="ProductsList" style="rounded=0;whiteSpace=wrap;html=1;" parent="1" vertex="1">
                    <mxGeometry x="380" y="-560" width="120" height="60" as="geometry"/>
                </mxCell>
                <mxCell id="EEvJO6Ll649oGky7SUus-45" value="Product&lt;br&gt;" style="rounded=0;whiteSpace=wrap;html=1;" parent="1" vertex="1">
                    <mxGeometry x="380" y="-470" width="120" height="60" as="geometry"/>
                </mxCell>
                <mxCell id="EEvJO6Ll649oGky7SUus-48" value="ProductForm&lt;br&gt;" style="rounded=1;whiteSpace=wrap;html=1;" parent="1" vertex="1">
                    <mxGeometry x="380" y="-640" width="120" height="60" as="geometry"/>
                </mxCell>
                <mxCell id="EEvJO6Ll649oGky7SUus-57" style="edgeStyle=orthogonalEdgeStyle;rounded=0;orthogonalLoop=1;jettySize=auto;html=1;entryX=0.5;entryY=0;entryDx=0;entryDy=0;" parent="1" source="EEvJO6Ll649oGky7SUus-51" target="EEvJO6Ll649oGky7SUus-56" edge="1">
                    <mxGeometry relative="1" as="geometry"/>
                </mxCell>
                <mxCell id="EEvJO6Ll649oGky7SUus-51" value="STORE" style="shape=cube;whiteSpace=wrap;html=1;boundedLbl=1;backgroundOutline=1;darkOpacity=0.05;darkOpacity2=0.1;" parent="1" vertex="1">
                    <mxGeometry x="50" y="-780" width="120" height="80" as="geometry"/>
                </mxCell>
                <mxCell id="EEvJO6Ll649oGky7SUus-55" style="edgeStyle=orthogonalEdgeStyle;rounded=0;orthogonalLoop=1;jettySize=auto;html=1;" parent="1" source="EEvJO6Ll649oGky7SUus-52" target="EEvJO6Ll649oGky7SUus-51" edge="1">
                    <mxGeometry relative="1" as="geometry"/>
                </mxCell>
                <mxCell id="EEvJO6Ll649oGky7SUus-52" value="&lt;font style=&quot;font-size: 18px&quot;&gt;action -&amp;gt; dispatch-&amp;gt; reducer -&amp;gt;&amp;nbsp;&lt;br&gt;returns our state&lt;br&gt;&lt;/font&gt;" style="shape=process;whiteSpace=wrap;html=1;backgroundOutline=1;" parent="1" vertex="1">
                    <mxGeometry x="20" y="-940" width="180" height="90" as="geometry"/>
                </mxCell>
                <mxCell id="EEvJO6Ll649oGky7SUus-54" value="&lt;font style=&quot;font-size: 14px&quot;&gt;&lt;u&gt;&lt;b&gt;dispatch&lt;/b&gt;&lt;/u&gt;: How we pass our action to our reducer.&lt;/font&gt;" style="text;html=1;align=center;verticalAlign=middle;whiteSpace=wrap;rounded=0;strokeColor=#000000;" parent="1" vertex="1">
                    <mxGeometry x="420" y="-1090" width="190" height="190" as="geometry"/>
                </mxCell>
                <mxCell id="EEvJO6Ll649oGky7SUus-58" style="edgeStyle=orthogonalEdgeStyle;rounded=0;orthogonalLoop=1;jettySize=auto;html=1;" parent="1" source="EEvJO6Ll649oGky7SUus-56" target="EEvJO6Ll649oGky7SUus-48" edge="1">
                    <mxGeometry relative="1" as="geometry"/>
                </mxCell>
                <mxCell id="EEvJO6Ll649oGky7SUus-63" style="edgeStyle=orthogonalEdgeStyle;rounded=0;orthogonalLoop=1;jettySize=auto;html=1;" parent="1" source="EEvJO6Ll649oGky7SUus-56" target="EEvJO6Ll649oGky7SUus-44" edge="1">
                    <mxGeometry relative="1" as="geometry"/>
                </mxCell>
                <mxCell id="EEvJO6Ll649oGky7SUus-56" value="Provider" style="triangle;whiteSpace=wrap;html=1;" parent="1" vertex="1">
                    <mxGeometry x="40" y="-610" width="140" height="80" as="geometry"/>
                </mxCell>
                <mxCell id="EEvJO6Ll649oGky7SUus-65" value="&lt;font style=&quot;font-size: 14px&quot;&gt;&lt;u&gt;&lt;b&gt;reducer&lt;/b&gt;:&lt;/u&gt; function that returns state w/ some logic&lt;br&gt;&lt;br&gt;&lt;u&gt;&lt;b&gt;action&lt;/b&gt;&lt;/u&gt;: object with a type and a payload&lt;br&gt;&lt;br&gt;example of what an action returns:&amp;nbsp;&lt;br&gt;&lt;div style=&quot;text-align: left&quot;&gt;&lt;span&gt;action = {&amp;nbsp;&lt;/span&gt;&lt;/div&gt;&lt;div style=&quot;text-align: left&quot;&gt;&lt;span&gt;&amp;nbsp; &amp;nbsp; &amp;nbsp; &amp;nbsp; type: &quot;ADD_PRODUCT&quot;,&lt;/span&gt;&lt;/div&gt;&lt;div style=&quot;text-align: left&quot;&gt;&lt;span&gt;&amp;nbsp; &amp;nbsp; &amp;nbsp; &amp;nbsp; payload:&lt;/span&gt;&lt;/div&gt;&lt;div style=&quot;text-align: left&quot;&gt;&lt;span&gt;&amp;nbsp; &amp;nbsp; &amp;nbsp; &amp;nbsp; &amp;nbsp; &amp;nbsp; &amp;nbsp; {&lt;/span&gt;&lt;/div&gt;&lt;div style=&quot;text-align: left&quot;&gt;&lt;span&gt;&amp;nbsp; &amp;nbsp; &amp;nbsp; &amp;nbsp; &amp;nbsp; &amp;nbsp; &amp;nbsp; &amp;nbsp; &amp;nbsp;name:&amp;nbsp; &quot;Cat Food&quot;,&lt;/span&gt;&lt;/div&gt;&lt;div style=&quot;text-align: left&quot;&gt;&lt;span&gt;&amp;nbsp; &amp;nbsp; &amp;nbsp; &amp;nbsp; &amp;nbsp; &amp;nbsp; &amp;nbsp; &amp;nbsp; &amp;nbsp;quantity: 5&lt;/span&gt;&lt;/div&gt;&lt;div style=&quot;text-align: left&quot;&gt;&lt;span&gt;&amp;nbsp; &amp;nbsp; &amp;nbsp; &amp;nbsp; &amp;nbsp; &amp;nbsp; &amp;nbsp; }&lt;/span&gt;&lt;/div&gt;&lt;div style=&quot;text-align: left&quot;&gt;&lt;span&gt;&amp;nbsp; &amp;nbsp; &amp;nbsp;}&lt;/span&gt;&lt;/div&gt;&lt;br&gt;&lt;/font&gt;" style="text;html=1;align=center;verticalAlign=middle;whiteSpace=wrap;rounded=0;shadow=1;strokeColor=#000000;" parent="1" vertex="1">
                    <mxGeometry x="220" y="-1090" width="200" height="300" as="geometry"/>
                </mxCell>
            </root>
        </mxGraphModel>
    </diagram>
</mxfile>